<?xml version="1.0" encoding="utf-8"?>
<!-- Generator: Adobe Illustrator 17.1.0, SVG Export Plug-In . SVG Version: 6.00 Build 0)  -->
<!DOCTYPE svg PUBLIC "-//W3C//DTD SVG 1.1//EN" "http://www.w3.org/Graphics/SVG/1.1/DTD/svg11.dtd">
<svg version="1.1" id="Camada_1" xmlns:sketch="http://www.bohemiancoding.com/sketch/ns"
	 xmlns="http://www.w3.org/2000/svg" xmlns:xlink="http://www.w3.org/1999/xlink" x="0px" y="0px" width="145px" height="145px"
	 viewBox="0 0 145 145" enable-background="new 0 0 145 145" xml:space="preserve">
<title>Shape</title>
<desc>Created with Sketch.</desc>
<g id="Rede-Meio-Norte" sketch:type="MSPage">
	<g id="Poll-_x28_not-found_x29_" transform="translate(-302.000000, -608.000000)" sketch:type="MSArtboardGroup">
		<path id="Shape" sketch:type="MSShapeGroup" fill="#E74C3C" d="M374.8,608c-39.9,0-72.2,32.3-72.2,72.2s32.3,72.2,72.2,72.2
			s72.2-32.3,72.2-72.2S414.7,608,374.8,608L374.8,608z M374.8,730c-6.1,0-11.1-5-11.1-11.1s5-11.1,11.1-11.1s11.1,5,11.1,11.1
			S380.9,730,374.8,730L374.8,730z M385.9,688.1c0,6.1-5,11.1-11.1,11.1s-11.1-5-11.1-11.1v-46.4c0-6.1,5-11.1,11.1-11.1
			s11.1,5,11.1,11.1V688.1L385.9,688.1z"/>
	</g>
</g>
</svg>
