<?xml version="1.0" encoding="utf-8"?>
<!-- Generator: Adobe Illustrator 17.1.0, SVG Export Plug-In . SVG Version: 6.00 Build 0)  -->
<!DOCTYPE svg PUBLIC "-//W3C//DTD SVG 1.1//EN" "http://www.w3.org/Graphics/SVG/1.1/DTD/svg11.dtd">
<svg version="1.1" id="Camada_1" xmlns:sketch="http://www.bohemiancoding.com/sketch/ns"
	 xmlns="http://www.w3.org/2000/svg" xmlns:xlink="http://www.w3.org/1999/xlink" x="0px" y="0px" width="96px" height="88px"
	 viewBox="0 0 96 88" enable-background="new 0 0 96 88" xml:space="preserve">
<title>noun_119520_cc</title>
<desc>Created with Sketch.</desc>
<g id="Page-1" sketch:type="MSPage">
	<g id="noun_119520_cc" sketch:type="MSLayerGroup">
		<g id="Group" sketch:type="MSShapeGroup">
			<g id="Shape">
				<path fill="#CCCCCC" d="M93,60.7c1.6-3.3,2.5-6.9,2.5-10.6c0-7-3-13.6-8.5-18.5c-5.4-4.8-12.6-7.5-20.3-7.5
					c-2.2,0-4.4,0.2-6.6,0.7c0.1,0.7,0.2,1.5,0.3,2.2c2-0.4,4.1-0.7,6.2-0.7c7.1,0,13.8,2.5,18.8,6.9c5,4.5,7.8,10.4,7.8,16.8
					c0,3.3-0.8,6.5-2.2,9.6c-1.3,2.7-3.2,5.1-5.5,7.2L85,67.3l2.6,15.8l-18-9.3l-0.3,0c-0.9,0.1-1.8,0.1-2.6,0.1
					c-7.1,0-13.8-2.5-18.8-6.9c-4-3.5-6.5-8-7.4-12.9c-0.7,0.2-1.4,0.4-2.2,0.5c1,5.3,3.8,10.1,8.1,14c5.4,4.8,12.6,7.5,20.3,7.5
					c0.8,0,1.7,0,2.5-0.1l21.4,11.1l-3.1-19C89.7,66,91.6,63.5,93,60.7L93,60.7z"/>
				<path fill="#CCCCCC" d="M58,24.7c-0.1-0.7-0.2-1.5-0.3-2.2c-1-5.3-3.8-10.1-8.1-14c-5.4-4.8-12.6-7.5-20.3-7.5
					C21.6,0.9,14.4,3.6,9,8.4c-5.5,4.9-8.5,11.5-8.5,18.5c0,3.7,0.8,7.2,2.5,10.6c1.4,2.8,3.2,5.3,5.6,7.5l-3.1,19l21.4-11.1
					c0.8,0.1,1.7,0.1,2.5,0.1c2.2,0,4.4-0.2,6.6-0.7c0.7-0.2,1.5-0.3,2.2-0.5c4.3-1.2,8.2-3.4,11.5-6.3c5.5-4.9,8.5-11.5,8.5-18.5
					C58.1,26.2,58,25.4,58,24.7L58,24.7z M48,43.7c-3,2.6-6.5,4.6-10.3,5.7c-0.7,0.2-1.5,0.4-2.2,0.6c-2,0.4-4.1,0.7-6.2,0.7
					c-0.9,0-1.8,0-2.6-0.1l-0.3,0l-18,9.3l2.6-15.8l-0.5-0.4c-2.3-2.1-4.2-4.5-5.5-7.2c-1.5-3-2.2-6.2-2.2-9.6
					c0-6.3,2.8-12.3,7.8-16.8c5-4.5,11.7-6.9,18.8-6.9S43,5.6,48,10.1c4,3.5,6.5,8,7.4,12.9c0.1,0.7,0.2,1.5,0.3,2.2
					c0,0.6,0.1,1.1,0.1,1.7C55.8,33.3,53.1,39.2,48,43.7L48,43.7z"/>
			</g>
			<path id="Shape_1_" fill="#CCCCCC" d="M82,45.8c0,0.1-0.1,0.2-0.2,0.2H54.2c-0.1,0-0.2-0.1-0.2-0.2v-1.6c0-0.1,0.1-0.2,0.2-0.2
				h27.6c0.1,0,0.2,0.1,0.2,0.2V45.8L82,45.8z"/>
			<path id="Shape_2_" fill="#CCCCCC" d="M82,51.8c0,0.1-0.1,0.2-0.2,0.2H54.2c-0.1,0-0.2-0.1-0.2-0.2v-1.6c0-0.1,0.1-0.2,0.2-0.2
				h27.6c0.1,0,0.2,0.1,0.2,0.2V51.8L82,51.8z"/>
			<path id="Shape_3_" fill="#CCCCCC" d="M82,57.8c0,0.1-0.1,0.2-0.2,0.2H54.2c-0.1,0-0.2-0.1-0.2-0.2v-1.6c0-0.1,0.1-0.2,0.2-0.2
				h27.6c0.1,0,0.2,0.1,0.2,0.2V57.8L82,57.8z"/>
			<path id="Shape_4_" fill="#CCCCCC" d="M43,22.8c0,0.1-0.1,0.2-0.3,0.2H14.3c-0.2,0-0.3-0.1-0.3-0.2v-1.6c0-0.1,0.1-0.2,0.3-0.2
				h28.4c0.2,0,0.3,0.1,0.3,0.2V22.8L43,22.8z"/>
			<path id="Shape_5_" fill="#CCCCCC" d="M43,28.7c0,0.2-0.1,0.3-0.3,0.3H14.3c-0.2,0-0.3-0.1-0.3-0.3v-1.4c0-0.2,0.1-0.3,0.3-0.3
				h28.4c0.2,0,0.3,0.1,0.3,0.3V28.7L43,28.7z"/>
			<path id="Shape_6_" fill="#CCCCCC" d="M43,34.9c0,0.1-0.1,0.1-0.3,0.1H14.3c-0.2,0-0.3,0-0.3-0.1v-1.8c0-0.1,0.1-0.1,0.3-0.1
				h28.4c0.2,0,0.3,0,0.3,0.1V34.9L43,34.9z"/>
		</g>
	</g>
</g>
</svg>
